<?xml version="1.0" encoding="UTF-8"?>
<svg width="1200pt" height="1200pt" version="1.1" viewBox="0 0 1200 1200" xmlns="http://www.w3.org/2000/svg">
 <g>
  <path d="m747.6 600c0 81.516-66.086 147.6-147.6 147.6s-147.6-66.086-147.6-147.6 66.086-147.6 147.6-147.6 147.6 66.086 147.6 147.6"/>
  <path d="m104.4 474c40.801 0 74.398-33.602 74.398-74.398l0.003906-220.8h222c40.801 0 74.398-33.602 74.398-74.398 0-40.801-33.602-74.398-74.398-74.398l-296.4-0.003906c-40.801 0-74.398 33.602-74.398 74.398v296.4c0 40.805 33.602 73.203 74.398 73.203z"/>
  <path d="m1095.6 726c-40.801 0-74.398 33.602-74.398 74.398v222h-222c-40.801 0-74.398 33.602-74.398 74.398 0 40.801 33.602 74.398 74.398 74.398h296.4c40.801 0 74.398-33.602 74.398-74.398l0.003906-297.6c0-40.801-33.602-73.199-74.398-73.199z"/>
  <path d="m400.8 1021.2h-222v-222c0-40.801-33.602-74.398-74.398-74.398-40.801 0-74.398 33.602-74.398 74.398v296.4c0 40.801 33.602 74.398 74.398 74.398h296.4c40.801 0 74.398-33.602 74.398-74.398-1.1992-40.797-33.598-74.398-74.398-74.398z"/>
  <path d="m1095.6 30h-296.4c-40.801 0-74.398 33.602-74.398 74.398 0 40.801 33.602 74.398 74.398 74.398h222v222c0 40.801 33.602 74.398 74.398 74.398 40.801 0 74.398-33.602 74.398-74.398l0.003906-296.4c0-40.797-33.602-74.398-74.398-74.398z"/>
 </g>
</svg>
